<svg xmlns="http://www.w3.org/2000/svg" viewBox="0 0 88.12 88.12"><defs><style>.cls-1{fill:#231f20;}</style></defs><g id="Layer_2" data-name="Layer 2"><g id="Layer_1-2" data-name="Layer 1"><polygon class="cls-1" points="63.73 37.51 63.73 50.62 50.62 50.62 50.62 63.73 37.51 63.73 37.51 50.62 24.39 50.62 24.39 37.51 37.51 37.51 37.51 24.39 50.62 24.39 50.62 37.51 63.73 37.51"/><path class="cls-1" d="M82.49,45.6h0a5.63,5.63,0,0,0-5.64,5.63h0a5.65,5.65,0,0,0,1.59,3.93,4.4,4.4,0,0,1,1.26,3.07h0a4.41,4.41,0,0,1-4.81,4.37c-.31,0-.63,0-.94,0h0A11.33,11.33,0,0,0,62.62,73.89h0c0,.32,0,.63,0,.94a4.41,4.41,0,0,1-4.37,4.81h-1a4.4,4.4,0,0,1-3.07-1.26,5.65,5.65,0,0,0-3.92-1.59h0a5.64,5.64,0,0,0-5.64,5.64h0a5.64,5.64,0,0,0,5.64,5.64h0a5.9,5.9,0,0,0,1.33-.16,89.07,89.07,0,0,1,21-2.69H74A11.32,11.32,0,0,0,85.23,74.86h0v-1h0v-.33a89,89,0,0,1,2.68-21,5.4,5.4,0,0,0,.16-1.34h0A5.63,5.63,0,0,0,82.49,45.6Z"/><path class="cls-1" d="M5.64,42.52h0a5.63,5.63,0,0,0,5.63-5.63h0A5.57,5.57,0,0,0,9.68,33a4.44,4.44,0,0,1-1.25-3.08h0a4.4,4.4,0,0,1,4.8-4.37c.31,0,.63,0,.94,0h0A11.33,11.33,0,0,0,25.5,14.23h0c0-.32,0-.63,0-.94a4.42,4.42,0,0,1,4.38-4.81h1a4.4,4.4,0,0,1,3.07,1.26,5.65,5.65,0,0,0,3.93,1.59h0a5.63,5.63,0,0,0,5.63-5.64h0A5.63,5.63,0,0,0,37.86.06h0a5.4,5.4,0,0,0-1.34.16,89.51,89.51,0,0,1-21,2.68H14.17A11.32,11.32,0,0,0,2.89,13.26h0v1h0v.33a89.15,89.15,0,0,1-2.69,21A5.27,5.27,0,0,0,0,36.89H0A5.63,5.63,0,0,0,5.64,42.52Z"/><path class="cls-1" d="M45.6,5.64h0a5.63,5.63,0,0,0,5.63,5.63h0a5.61,5.61,0,0,0,3.93-1.59,4.39,4.39,0,0,1,3.07-1.25h0a4.4,4.4,0,0,1,4.37,4.8c0,.31,0,.63,0,.94h0A11.33,11.33,0,0,0,73.89,25.5h0c.32,0,.63,0,.94,0a4.42,4.42,0,0,1,4.81,4.38v1a4.4,4.4,0,0,1-1.26,3.07,5.65,5.65,0,0,0-1.59,3.93h0a5.64,5.64,0,0,0,5.64,5.63h0a5.64,5.64,0,0,0,5.64-5.63h0a5.92,5.92,0,0,0-.16-1.34,89,89,0,0,1-2.69-21v-1.3h0v-.06h0A11.32,11.32,0,0,0,74.86,2.89v0h-1.3a89,89,0,0,1-21-2.69A5.4,5.4,0,0,0,51.23,0h0A5.63,5.63,0,0,0,45.6,5.64Z"/><path class="cls-1" d="M42.52,82.49h0a5.63,5.63,0,0,0-5.63-5.64h0A5.61,5.61,0,0,0,33,78.44a4.45,4.45,0,0,1-3.08,1.26h0a4.41,4.41,0,0,1-4.37-4.81c0-.31,0-.63,0-.94h0A11.33,11.33,0,0,0,14.23,62.62h0c-.32,0-.63,0-.94,0a4.41,4.41,0,0,1-4.81-4.37v-1a4.4,4.4,0,0,1,1.26-3.07,5.65,5.65,0,0,0,1.59-3.92h0a5.63,5.63,0,0,0-5.64-5.64h0A5.63,5.63,0,0,0,.06,50.27h0A5.38,5.38,0,0,0,.22,51.6a89.58,89.58,0,0,1,2.68,21v1.3h0V74h0A11.32,11.32,0,0,0,13.26,85.23v0h1.3a89.14,89.14,0,0,1,21,2.68,5.27,5.27,0,0,0,1.33.16h0A5.63,5.63,0,0,0,42.52,82.49Z"/></g></g></svg>